<svg xmlns="http://www.w3.org/2000/svg" viewBox="0 0 160 150"><circle cx="67.5" cy="7.5" r="1.5" fill="#111111"/><circle cx="72.5" cy="7.5" r="1.5" fill="#111111"/><circle cx="77.5" cy="7.5" r="1.5" fill="#111111"/><circle cx="82.5" cy="7.5" r="1.5" fill="#111111"/><circle cx="87.5" cy="7.5" r="1.5" fill="#111111"/><circle cx="92.5" cy="7.5" r="1.5" fill="#111111"/><circle cx="57.5" cy="12.5" r="1.5" fill="#111111"/><circle cx="62.5" cy="12.5" r="1.5" fill="#111111"/><circle cx="67.5" cy="12.5" r="1.5" fill="#111111"/><circle cx="72.5" cy="12.5" r="1.5" fill="#111111"/><circle cx="77.5" cy="12.5" r="1.5" fill="#111111"/><circle cx="82.5" cy="12.5" r="1.5" fill="#111111"/><circle cx="87.5" cy="12.5" r="1.5" fill="#111111"/><circle cx="92.5" cy="12.5" r="1.5" fill="#111111"/><circle cx="97.5" cy="12.5" r="1.5" fill="#111111"/><circle cx="102.5" cy="12.5" r="1.5" fill="#111111"/><circle cx="52.5" cy="17.5" r="1.5" fill="#111111"/><circle cx="57.5" cy="17.5" r="1.5" fill="#111111"/><circle cx="62.5" cy="17.5" r="1.5" fill="#111111"/><circle cx="67.5" cy="17.5" r="1.5" fill="#111111"/><circle cx="72.5" cy="17.5" r="1.5" fill="#111111"/><circle cx="77.5" cy="17.5" r="1.5" fill="#111111"/><circle cx="82.5" cy="17.5" r="1.5" fill="#111111"/><circle cx="87.5" cy="17.5" r="1.5" fill="#111111"/><circle cx="92.5" cy="17.5" r="1.5" fill="#111111"/><circle cx="97.5" cy="17.5" r="1.5" fill="#111111"/><circle cx="102.5" cy="17.5" r="1.5" fill="#111111"/><circle cx="107.5" cy="17.5" r="1.5" fill="#111111"/><circle cx="47.5" cy="22.5" r="1.5" fill="#111111"/><circle cx="52.5" cy="22.5" r="1.5" fill="#111111"/><circle cx="57.5" cy="22.5" r="1.5" fill="#111111"/><circle cx="62.5" cy="22.5" r="1.5" fill="#111111"/><circle cx="67.5" cy="22.5" r="1.5" fill="#111111"/><circle cx="72.5" cy="22.5" r="1.5" fill="#111111"/><circle cx="77.5" cy="22.5" r="1.5" fill="#111111"/><circle cx="82.5" cy="22.5" r="1.5" fill="#111111"/><circle cx="87.5" cy="22.5" r="1.5" fill="#111111"/><circle cx="92.5" cy="22.5" r="1.5" fill="#111111"/><circle cx="97.5" cy="22.5" r="1.5" fill="#111111"/><circle cx="102.5" cy="22.5" r="1.5" fill="#111111"/><circle cx="107.5" cy="22.5" r="1.5" fill="#111111"/><circle cx="112.5" cy="22.5" r="1.5" fill="#111111"/><circle cx="42.5" cy="27.5" r="1.5" fill="#111111"/><circle cx="47.5" cy="27.5" r="1.5" fill="#111111"/><circle cx="52.5" cy="27.5" r="1.5" fill="#111111"/><circle cx="57.5" cy="27.5" r="1.5" fill="#111111"/><circle cx="62.5" cy="27.5" r="1.5" fill="#111111"/><circle cx="67.5" cy="27.5" r="1.5" fill="#111111"/><circle cx="72.5" cy="27.5" r="1.5" fill="#111111"/><circle cx="77.5" cy="27.5" r="1.5" fill="#111111"/><circle cx="82.5" cy="27.5" r="1.5" fill="#111111"/><circle cx="87.5" cy="27.5" r="1.5" fill="#111111"/><circle cx="92.5" cy="27.5" r="1.5" fill="#111111"/><circle cx="97.5" cy="27.5" r="1.5" fill="#111111"/><circle cx="102.5" cy="27.5" r="1.5" fill="#111111"/><circle cx="107.5" cy="27.5" r="1.5" fill="#111111"/><circle cx="112.5" cy="27.5" r="1.5" fill="#111111"/><circle cx="117.5" cy="27.5" r="1.5" fill="#111111"/><circle cx="37.5" cy="32.5" r="1.5" fill="#111111"/><circle cx="42.5" cy="32.5" r="1.5" fill="#111111"/><circle cx="47.5" cy="32.5" r="1.5" fill="#111111"/><circle cx="52.5" cy="32.5" r="1.5" fill="#111111"/><circle cx="57.5" cy="32.5" r="1.5" fill="#111111"/><circle cx="62.5" cy="32.5" r="1.5" fill="#111111"/><circle cx="67.5" cy="32.5" r="1.5" fill="#111111"/><circle cx="72.5" cy="32.5" r="1.5" fill="#111111"/><circle cx="77.5" cy="32.5" r="1.5" fill="#111111"/><circle cx="82.5" cy="32.5" r="1.5" fill="#111111"/><circle cx="87.5" cy="32.5" r="1.5" fill="#111111"/><circle cx="92.5" cy="32.5" r="1.5" fill="#111111"/><circle cx="97.5" cy="32.5" r="1.5" fill="#111111"/><circle cx="102.5" cy="32.5" r="1.5" fill="#111111"/><circle cx="107.5" cy="32.5" r="1.5" fill="#111111"/><circle cx="112.5" cy="32.5" r="1.5" fill="#111111"/><circle cx="117.5" cy="32.5" r="1.5" fill="#111111"/><circle cx="122.5" cy="32.5" r="1.5" fill="#111111"/><circle cx="32.5" cy="37.5" r="1.5" fill="#111111"/><circle cx="37.5" cy="37.5" r="1.5" fill="#111111"/><circle cx="42.5" cy="37.5" r="1.5" fill="#111111"/><circle cx="47.5" cy="37.5" r="1.5" fill="#111111"/><circle cx="52.5" cy="37.5" r="1.5" fill="#111111"/><circle cx="57.5" cy="37.5" r="1.5" fill="#111111"/><circle cx="62.5" cy="37.5" r="1.5" fill="#111111"/><circle cx="67.5" cy="37.5" r="1.5" fill="#111111"/><circle cx="72.5" cy="37.5" r="1.5" fill="#111111"/><circle cx="77.5" cy="37.5" r="1.5" fill="#111111"/><circle cx="82.5" cy="37.5" r="1.5" fill="#111111"/><circle cx="87.5" cy="37.5" r="1.5" fill="#111111"/><circle cx="92.5" cy="37.5" r="1.5" fill="#111111"/><circle cx="97.5" cy="37.5" r="1.5" fill="#111111"/><circle cx="102.5" cy="37.5" r="1.5" fill="#111111"/><circle cx="107.5" cy="37.5" r="1.5" fill="#111111"/><circle cx="112.5" cy="37.5" r="1.5" fill="#111111"/><circle cx="117.5" cy="37.5" r="1.5" fill="#111111"/><circle cx="122.5" cy="37.5" r="1.5" fill="#111111"/><circle cx="127.5" cy="37.5" r="1.5" fill="#111111"/><circle cx="27.5" cy="42.5" r="1.5" fill="#111111"/><circle cx="32.5" cy="42.5" r="1.5" fill="#111111"/><circle cx="37.5" cy="42.5" r="1.5" fill="#111111"/><circle cx="42.5" cy="42.5" r="1.5" fill="#111111"/><circle cx="47.5" cy="42.5" r="1.5" fill="#111111"/><circle cx="52.5" cy="42.5" r="1.5" fill="#111111"/><circle cx="57.5" cy="42.5" r="1.5" fill="#111111"/><circle cx="62.5" cy="42.5" r="1.5" fill="#111111"/><circle cx="67.5" cy="42.5" r="1.5" fill="#111111"/><circle cx="72.5" cy="42.5" r="1.5" fill="#111111"/><circle cx="77.5" cy="42.5" r="1.5" fill="#111111"/><circle cx="82.5" cy="42.5" r="1.5" fill="#111111"/><circle cx="87.5" cy="42.5" r="1.5" fill="#111111"/><circle cx="92.5" cy="42.5" r="1.5" fill="#111111"/><circle cx="97.5" cy="42.5" r="1.5" fill="#111111"/><circle cx="102.5" cy="42.5" r="1.5" fill="#111111"/><circle cx="107.5" cy="42.5" r="1.5" fill="#111111"/><circle cx="112.5" cy="42.5" r="1.5" fill="#111111"/><circle cx="117.5" cy="42.5" r="1.5" fill="#111111"/><circle cx="122.5" cy="42.5" r="1.5" fill="#111111"/><circle cx="127.5" cy="42.5" r="1.5" fill="#111111"/><circle cx="132.5" cy="42.5" r="1.5" fill="#111111"/><circle cx="22.5" cy="47.5" r="1.5" fill="#111111"/><circle cx="27.5" cy="47.5" r="1.5" fill="#111111"/><circle cx="32.5" cy="47.5" r="1.5" fill="#111111"/><circle cx="37.5" cy="47.5" r="1.5" fill="#111111"/><circle cx="42.5" cy="47.5" r="1.5" fill="#111111"/><circle cx="47.5" cy="47.5" r="1.5" fill="#111111"/><circle cx="52.5" cy="47.5" r="1.5" fill="#111111"/><circle cx="57.5" cy="47.5" r="1.5" fill="#111111"/><circle cx="62.5" cy="47.5" r="1.5" fill="#111111"/><circle cx="67.5" cy="47.5" r="1.5" fill="#111111"/><circle cx="72.5" cy="47.5" r="1.5" fill="#111111"/><circle cx="77.5" cy="47.5" r="1.5" fill="#111111"/><circle cx="82.5" cy="47.5" r="1.5" fill="#111111"/><circle cx="87.5" cy="47.5" r="1.5" fill="#111111"/><circle cx="92.5" cy="47.5" r="1.5" fill="#111111"/><circle cx="97.5" cy="47.5" r="1.5" fill="#111111"/><circle cx="102.5" cy="47.5" r="1.5" fill="#111111"/><circle cx="107.5" cy="47.5" r="1.5" fill="#111111"/><circle cx="112.5" cy="47.5" r="1.5" fill="#111111"/><circle cx="117.5" cy="47.5" r="1.5" fill="#111111"/><circle cx="122.5" cy="47.5" r="1.5" fill="#111111"/><circle cx="127.5" cy="47.5" r="1.5" fill="#111111"/><circle cx="132.5" cy="47.5" r="1.5" fill="#111111"/><circle cx="137.5" cy="47.5" r="1.5" fill="#111111"/><circle cx="17.5" cy="52.5" r="1.5" fill="#111111"/><circle cx="22.5" cy="52.5" r="1.5" fill="#111111"/><circle cx="27.5" cy="52.5" r="1.5" fill="#111111"/><circle cx="32.5" cy="52.5" r="1.5" fill="#111111"/><circle cx="37.5" cy="52.5" r="1.5" fill="#111111"/><circle cx="42.5" cy="52.5" r="1.5" fill="#111111"/><circle cx="47.5" cy="52.5" r="1.5" fill="#111111"/><circle cx="52.5" cy="52.5" r="1.5" fill="#111111"/><circle cx="57.5" cy="52.5" r="1.5" fill="#111111"/><circle cx="62.5" cy="52.5" r="1.5" fill="#111111"/><circle cx="97.5" cy="52.5" r="1.5" fill="#111111"/><circle cx="102.5" cy="52.5" r="1.5" fill="#111111"/><circle cx="107.5" cy="52.5" r="1.5" fill="#111111"/><circle cx="112.5" cy="52.5" r="1.5" fill="#111111"/><circle cx="117.5" cy="52.5" r="1.5" fill="#111111"/><circle cx="122.5" cy="52.5" r="1.5" fill="#111111"/><circle cx="127.5" cy="52.5" r="1.5" fill="#111111"/><circle cx="132.5" cy="52.5" r="1.5" fill="#111111"/><circle cx="137.5" cy="52.5" r="1.5" fill="#111111"/><circle cx="142.5" cy="52.5" r="1.5" fill="#111111"/><circle cx="12.5" cy="57.5" r="1.5" fill="#111111"/><circle cx="17.5" cy="57.5" r="1.5" fill="#111111"/><circle cx="22.5" cy="57.5" r="1.5" fill="#111111"/><circle cx="27.5" cy="57.5" r="1.5" fill="#111111"/><circle cx="32.5" cy="57.5" r="1.5" fill="#111111"/><circle cx="37.5" cy="57.5" r="1.5" fill="#111111"/><circle cx="42.5" cy="57.5" r="1.5" fill="#111111"/><circle cx="47.5" cy="57.5" r="1.5" fill="#111111"/><circle cx="52.5" cy="57.5" r="1.5" fill="#111111"/><circle cx="57.5" cy="57.5" r="1.5" fill="#111111"/><circle cx="102.5" cy="57.5" r="1.5" fill="#111111"/><circle cx="107.5" cy="57.5" r="1.5" fill="#111111"/><circle cx="112.5" cy="57.5" r="1.5" fill="#111111"/><circle cx="117.5" cy="57.5" r="1.5" fill="#111111"/><circle cx="122.5" cy="57.5" r="1.5" fill="#111111"/><circle cx="127.5" cy="57.5" r="1.5" fill="#111111"/><circle cx="132.5" cy="57.5" r="1.5" fill="#111111"/><circle cx="137.5" cy="57.5" r="1.5" fill="#111111"/><circle cx="142.5" cy="57.5" r="1.5" fill="#111111"/><circle cx="147.5" cy="57.5" r="1.5" fill="#111111"/><circle cx="7.5" cy="62.5" r="1.5" fill="#111111"/><circle cx="12.5" cy="62.5" r="1.5" fill="#111111"/><circle cx="17.5" cy="62.5" r="1.5" fill="#111111"/><circle cx="22.5" cy="62.5" r="1.5" fill="#111111"/><circle cx="27.5" cy="62.5" r="1.5" fill="#111111"/><circle cx="32.5" cy="62.5" r="1.5" fill="#111111"/><circle cx="37.5" cy="62.5" r="1.5" fill="#111111"/><circle cx="42.5" cy="62.5" r="1.5" fill="#111111"/><circle cx="47.5" cy="62.5" r="1.5" fill="#111111"/><circle cx="52.5" cy="62.5" r="1.5" fill="#111111"/><circle cx="107.5" cy="62.5" r="1.5" fill="#111111"/><circle cx="112.5" cy="62.5" r="1.5" fill="#111111"/><circle cx="117.5" cy="62.5" r="1.5" fill="#111111"/><circle cx="122.5" cy="62.5" r="1.5" fill="#111111"/><circle cx="127.5" cy="62.5" r="1.5" fill="#111111"/><circle cx="132.5" cy="62.5" r="1.5" fill="#111111"/><circle cx="137.5" cy="62.5" r="1.5" fill="#111111"/><circle cx="142.5" cy="62.5" r="1.5" fill="#111111"/><circle cx="147.5" cy="62.5" r="1.5" fill="#111111"/><circle cx="152.5" cy="62.5" r="1.5" fill="#111111"/><circle cx="7.5" cy="67.5" r="1.5" fill="#111111"/><circle cx="12.5" cy="67.5" r="1.5" fill="#111111"/><circle cx="17.5" cy="67.5" r="1.5" fill="#111111"/><circle cx="22.5" cy="67.5" r="1.5" fill="#111111"/><circle cx="27.5" cy="67.5" r="1.5" fill="#111111"/><circle cx="32.5" cy="67.5" r="1.5" fill="#111111"/><circle cx="37.5" cy="67.5" r="1.5" fill="#111111"/><circle cx="42.5" cy="67.5" r="1.5" fill="#111111"/><circle cx="47.5" cy="67.5" r="1.5" fill="#111111"/><circle cx="112.5" cy="67.5" r="1.5" fill="#111111"/><circle cx="117.5" cy="67.5" r="1.5" fill="#111111"/><circle cx="122.5" cy="67.5" r="1.5" fill="#111111"/><circle cx="127.5" cy="67.5" r="1.5" fill="#111111"/><circle cx="132.5" cy="67.5" r="1.5" fill="#111111"/><circle cx="137.5" cy="67.5" r="1.5" fill="#111111"/><circle cx="142.5" cy="67.5" r="1.5" fill="#111111"/><circle cx="147.5" cy="67.5" r="1.5" fill="#111111"/><circle cx="152.5" cy="67.5" r="1.5" fill="#111111"/><circle cx="7.5" cy="72.5" r="1.5" fill="#111111"/><circle cx="12.5" cy="72.5" r="1.5" fill="#111111"/><circle cx="17.5" cy="72.5" r="1.5" fill="#111111"/><circle cx="22.5" cy="72.5" r="1.5" fill="#111111"/><circle cx="27.5" cy="72.5" r="1.5" fill="#111111"/><circle cx="32.5" cy="72.5" r="1.5" fill="#111111"/><circle cx="37.5" cy="72.5" r="1.5" fill="#111111"/><circle cx="42.5" cy="72.5" r="1.5" fill="#111111"/><circle cx="67.5" cy="72.5" r="1.5" fill="#111111"/><circle cx="72.5" cy="72.5" r="1.5" fill="#111111"/><circle cx="97.5" cy="72.5" r="1.5" fill="#111111"/><circle cx="102.5" cy="72.5" r="1.5" fill="#111111"/><circle cx="127.5" cy="72.5" r="1.5" fill="#111111"/><circle cx="132.5" cy="72.5" r="1.5" fill="#111111"/><circle cx="137.5" cy="72.5" r="1.5" fill="#111111"/><circle cx="142.5" cy="72.5" r="1.5" fill="#111111"/><circle cx="147.5" cy="72.5" r="1.5" fill="#111111"/><circle cx="152.5" cy="72.5" r="1.5" fill="#111111"/><circle cx="157.5" cy="72.5" r="1.5" fill="#111111"/><circle cx="162.5" cy="72.5" r="1.5" fill="#111111"/><circle cx="7.5" cy="77.5" r="1.5" fill="#111111"/><circle cx="12.5" cy="77.5" r="1.5" fill="#111111"/><circle cx="17.5" cy="77.5" r="1.5" fill="#111111"/><circle cx="22.5" cy="77.5" r="1.5" fill="#111111"/><circle cx="27.5" cy="77.5" r="1.5" fill="#111111"/><circle cx="32.5" cy="77.5" r="1.5" fill="#111111"/><circle cx="37.5" cy="77.5" r="1.5" fill="#111111"/><circle cx="42.5" cy="77.5" r="1.5" fill="#111111"/><circle cx="67.5" cy="77.5" r="1.5" fill="#111111"/><circle cx="72.5" cy="77.5" r="1.5" fill="#111111"/><circle cx="97.5" cy="77.5" r="1.5" fill="#111111"/><circle cx="102.5" cy="77.5" r="1.5" fill="#111111"/><circle cx="127.5" cy="77.5" r="1.5" fill="#111111"/><circle cx="132.5" cy="77.5" r="1.5" fill="#111111"/><circle cx="137.5" cy="77.5" r="1.5" fill="#111111"/><circle cx="142.5" cy="77.5" r="1.5" fill="#111111"/><circle cx="147.5" cy="77.5" r="1.5" fill="#111111"/><circle cx="152.5" cy="77.5" r="1.5" fill="#111111"/><circle cx="157.5" cy="77.5" r="1.5" fill="#111111"/><circle cx="162.5" cy="77.5" r="1.5" fill="#111111"/><circle cx="7.5" cy="82.5" r="1.5" fill="#111111"/><circle cx="12.5" cy="82.5" r="1.5" fill="#111111"/><circle cx="17.5" cy="82.5" r="1.5" fill="#111111"/><circle cx="22.5" cy="82.5" r="1.5" fill="#111111"/><circle cx="27.5" cy="82.5" r="1.5" fill="#111111"/><circle cx="32.5" cy="82.5" r="1.5" fill="#111111"/><circle cx="37.5" cy="82.5" r="1.5" fill="#111111"/><circle cx="42.5" cy="82.5" r="1.5" fill="#111111"/><circle cx="47.5" cy="82.5" r="1.5" fill="#111111"/><circle cx="112.5" cy="82.5" r="1.5" fill="#111111"/><circle cx="117.5" cy="82.5" r="1.5" fill="#111111"/><circle cx="122.5" cy="82.5" r="1.5" fill="#111111"/><circle cx="127.5" cy="82.5" r="1.5" fill="#111111"/><circle cx="132.5" cy="82.5" r="1.5" fill="#111111"/><circle cx="137.5" cy="82.5" r="1.5" fill="#111111"/><circle cx="142.5" cy="82.5" r="1.5" fill="#111111"/><circle cx="147.5" cy="82.5" r="1.5" fill="#111111"/><circle cx="152.5" cy="82.5" r="1.5" fill="#111111"/><circle cx="12.5" cy="87.5" r="1.5" fill="#111111"/><circle cx="17.5" cy="87.5" r="1.5" fill="#111111"/><circle cx="22.5" cy="87.5" r="1.5" fill="#111111"/><circle cx="27.5" cy="87.5" r="1.5" fill="#111111"/><circle cx="32.5" cy="87.5" r="1.5" fill="#111111"/><circle cx="37.5" cy="87.5" r="1.5" fill="#111111"/><circle cx="42.5" cy="87.5" r="1.5" fill="#111111"/><circle cx="47.5" cy="87.5" r="1.5" fill="#111111"/><circle cx="52.5" cy="87.5" r="1.5" fill="#111111"/><circle cx="57.5" cy="87.5" r="1.5" fill="#111111"/><circle cx="102.5" cy="87.5" r="1.5" fill="#111111"/><circle cx="107.5" cy="87.5" r="1.5" fill="#111111"/><circle cx="112.5" cy="87.5" r="1.5" fill="#111111"/><circle cx="117.5" cy="87.5" r="1.5" fill="#111111"/><circle cx="122.5" cy="87.5" r="1.5" fill="#111111"/><circle cx="127.5" cy="87.5" r="1.5" fill="#111111"/><circle cx="132.5" cy="87.5" r="1.5" fill="#111111"/><circle cx="137.5" cy="87.5" r="1.5" fill="#111111"/><circle cx="142.5" cy="87.5" r="1.5" fill="#111111"/><circle cx="147.5" cy="87.5" r="1.5" fill="#111111"/><circle cx="17.5" cy="92.5" r="1.5" fill="#111111"/><circle cx="22.5" cy="92.5" r="1.5" fill="#111111"/><circle cx="27.5" cy="92.5" r="1.5" fill="#111111"/><circle cx="32.5" cy="92.5" r="1.5" fill="#111111"/><circle cx="37.5" cy="92.5" r="1.5" fill="#111111"/><circle cx="42.5" cy="92.5" r="1.5" fill="#111111"/><circle cx="47.5" cy="92.5" r="1.5" fill="#111111"/><circle cx="52.5" cy="92.5" r="1.5" fill="#111111"/><circle cx="57.5" cy="92.5" r="1.5" fill="#111111"/><circle cx="62.5" cy="92.5" r="1.5" fill="#111111"/><circle cx="97.5" cy="92.5" r="1.5" fill="#111111"/><circle cx="102.5" cy="92.5" r="1.5" fill="#111111"/><circle cx="107.5" cy="92.5" r="1.5" fill="#111111"/><circle cx="112.5" cy="92.5" r="1.5" fill="#111111"/><circle cx="117.5" cy="92.5" r="1.5" fill="#111111"/><circle cx="122.5" cy="92.5" r="1.5" fill="#111111"/><circle cx="127.5" cy="92.5" r="1.5" fill="#111111"/><circle cx="132.5" cy="92.5" r="1.5" fill="#111111"/><circle cx="137.5" cy="92.5" r="1.5" fill="#111111"/><circle cx="142.5" cy="92.5" r="1.5" fill="#111111"/><circle cx="22.5" cy="97.5" r="1.5" fill="#111111"/><circle cx="27.5" cy="97.5" r="1.5" fill="#111111"/><circle cx="32.5" cy="97.5" r="1.5" fill="#111111"/><circle cx="37.5" cy="97.5" r="1.5" fill="#111111"/><circle cx="42.5" cy="97.5" r="1.5" fill="#111111"/><circle cx="47.5" cy="97.5" r="1.5" fill="#111111"/><circle cx="52.5" cy="97.5" r="1.5" fill="#111111"/><circle cx="57.5" cy="97.5" r="1.5" fill="#111111"/><circle cx="62.5" cy="97.5" r="1.5" fill="#111111"/><circle cx="67.5" cy="97.5" r="1.5" fill="#111111"/><circle cx="72.5" cy="97.5" r="1.5" fill="#111111"/><circle cx="77.5" cy="97.5" r="1.5" fill="#111111"/><circle cx="82.5" cy="97.5" r="1.5" fill="#111111"/><circle cx="87.5" cy="97.5" r="1.5" fill="#111111"/><circle cx="92.5" cy="97.5" r="1.5" fill="#111111"/><circle cx="97.5" cy="97.5" r="1.5" fill="#111111"/><circle cx="102.5" cy="97.5" r="1.5" fill="#111111"/><circle cx="107.5" cy="97.5" r="1.5" fill="#111111"/><circle cx="112.5" cy="97.5" r="1.5" fill="#111111"/><circle cx="117.5" cy="97.5" r="1.5" fill="#111111"/><circle cx="122.5" cy="97.5" r="1.5" fill="#111111"/><circle cx="127.5" cy="97.5" r="1.5" fill="#111111"/><circle cx="132.5" cy="97.5" r="1.5" fill="#111111"/><circle cx="137.5" cy="97.5" r="1.5" fill="#111111"/><circle cx="27.5" cy="102.5" r="1.5" fill="#111111"/><circle cx="32.5" cy="102.5" r="1.5" fill="#111111"/><circle cx="37.5" cy="102.5" r="1.5" fill="#111111"/><circle cx="42.5" cy="102.5" r="1.5" fill="#111111"/><circle cx="47.5" cy="102.5" r="1.5" fill="#111111"/><circle cx="52.5" cy="102.5" r="1.5" fill="#111111"/><circle cx="57.5" cy="102.5" r="1.5" fill="#111111"/><circle cx="62.5" cy="102.5" r="1.5" fill="#111111"/><circle cx="67.5" cy="102.5" r="1.5" fill="#111111"/><circle cx="72.5" cy="102.5" r="1.5" fill="#111111"/><circle cx="77.5" cy="102.5" r="1.5" fill="#111111"/><circle cx="82.5" cy="102.5" r="1.5" fill="#111111"/><circle cx="87.5" cy="102.5" r="1.5" fill="#111111"/><circle cx="92.5" cy="102.5" r="1.5" fill="#111111"/><circle cx="97.5" cy="102.5" r="1.5" fill="#111111"/><circle cx="102.5" cy="102.5" r="1.5" fill="#111111"/><circle cx="107.5" cy="102.5" r="1.5" fill="#111111"/><circle cx="112.5" cy="102.5" r="1.5" fill="#111111"/><circle cx="117.5" cy="102.5" r="1.5" fill="#111111"/><circle cx="122.5" cy="102.5" r="1.5" fill="#111111"/><circle cx="127.5" cy="102.5" r="1.5" fill="#111111"/><circle cx="132.5" cy="102.5" r="1.5" fill="#111111"/><circle cx="32.5" cy="107.5" r="1.5" fill="#111111"/><circle cx="37.5" cy="107.5" r="1.5" fill="#111111"/><circle cx="42.5" cy="107.5" r="1.5" fill="#111111"/><circle cx="47.5" cy="107.5" r="1.5" fill="#111111"/><circle cx="52.5" cy="107.5" r="1.5" fill="#111111"/><circle cx="57.5" cy="107.5" r="1.5" fill="#111111"/><circle cx="62.5" cy="107.5" r="1.5" fill="#111111"/><circle cx="67.5" cy="107.5" r="1.5" fill="#111111"/><circle cx="72.5" cy="107.5" r="1.5" fill="#111111"/><circle cx="77.5" cy="107.5" r="1.5" fill="#111111"/><circle cx="82.5" cy="107.5" r="1.5" fill="#111111"/><circle cx="87.5" cy="107.5" r="1.5" fill="#111111"/><circle cx="92.5" cy="107.5" r="1.5" fill="#111111"/><circle cx="97.5" cy="107.5" r="1.5" fill="#111111"/><circle cx="102.5" cy="107.5" r="1.5" fill="#111111"/><circle cx="107.5" cy="107.5" r="1.5" fill="#111111"/><circle cx="112.5" cy="107.5" r="1.5" fill="#111111"/><circle cx="117.5" cy="107.5" r="1.5" fill="#111111"/><circle cx="122.5" cy="107.5" r="1.5" fill="#111111"/><circle cx="127.5" cy="107.5" r="1.5" fill="#111111"/><circle cx="37.5" cy="112.5" r="1.5" fill="#111111"/><circle cx="42.5" cy="112.5" r="1.5" fill="#111111"/><circle cx="47.5" cy="112.5" r="1.5" fill="#111111"/><circle cx="52.5" cy="112.5" r="1.5" fill="#111111"/><circle cx="57.5" cy="112.5" r="1.5" fill="#111111"/><circle cx="62.5" cy="112.5" r="1.5" fill="#111111"/><circle cx="67.5" cy="112.5" r="1.5" fill="#111111"/><circle cx="72.5" cy="112.5" r="1.5" fill="#111111"/><circle cx="77.5" cy="112.5" r="1.5" fill="#111111"/><circle cx="82.5" cy="112.5" r="1.5" fill="#111111"/><circle cx="87.5" cy="112.5" r="1.5" fill="#111111"/><circle cx="92.5" cy="112.5" r="1.5" fill="#111111"/><circle cx="97.5" cy="112.5" r="1.5" fill="#111111"/><circle cx="102.5" cy="112.5" r="1.5" fill="#111111"/><circle cx="107.5" cy="112.5" r="1.5" fill="#111111"/><circle cx="112.5" cy="112.5" r="1.5" fill="#111111"/><circle cx="117.5" cy="112.5" r="1.5" fill="#111111"/><circle cx="122.5" cy="112.5" r="1.5" fill="#111111"/><circle cx="42.5" cy="117.5" r="1.5" fill="#111111"/><circle cx="47.5" cy="117.5" r="1.5" fill="#111111"/><circle cx="52.5" cy="117.5" r="1.5" fill="#111111"/><circle cx="57.5" cy="117.5" r="1.5" fill="#111111"/><circle cx="62.5" cy="117.5" r="1.5" fill="#111111"/><circle cx="67.5" cy="117.5" r="1.5" fill="#111111"/><circle cx="72.5" cy="117.5" r="1.5" fill="#111111"/><circle cx="77.5" cy="117.5" r="1.5" fill="#111111"/><circle cx="82.5" cy="117.5" r="1.5" fill="#111111"/><circle cx="87.5" cy="117.5" r="1.5" fill="#111111"/><circle cx="92.5" cy="117.5" r="1.5" fill="#111111"/><circle cx="97.5" cy="117.5" r="1.5" fill="#111111"/><circle cx="102.5" cy="117.5" r="1.5" fill="#111111"/><circle cx="107.5" cy="117.5" r="1.5" fill="#111111"/><circle cx="112.5" cy="117.5" r="1.5" fill="#111111"/><circle cx="117.5" cy="117.5" r="1.5" fill="#111111"/><circle cx="47.5" cy="122.5" r="1.5" fill="#111111"/><circle cx="52.5" cy="122.5" r="1.5" fill="#111111"/><circle cx="57.5" cy="122.5" r="1.5" fill="#111111"/><circle cx="62.5" cy="122.5" r="1.5" fill="#111111"/><circle cx="67.5" cy="122.5" r="1.5" fill="#111111"/><circle cx="72.5" cy="122.5" r="1.5" fill="#111111"/><circle cx="77.5" cy="122.5" r="1.5" fill="#111111"/><circle cx="82.5" cy="122.5" r="1.5" fill="#111111"/><circle cx="87.5" cy="122.5" r="1.5" fill="#111111"/><circle cx="92.5" cy="122.5" r="1.5" fill="#111111"/><circle cx="97.5" cy="122.5" r="1.5" fill="#111111"/><circle cx="102.5" cy="122.5" r="1.5" fill="#111111"/><circle cx="107.5" cy="122.5" r="1.5" fill="#111111"/><circle cx="112.5" cy="122.5" r="1.5" fill="#111111"/><circle cx="52.5" cy="127.5" r="1.5" fill="#111111"/><circle cx="57.5" cy="127.5" r="1.5" fill="#111111"/><circle cx="62.5" cy="127.5" r="1.5" fill="#111111"/><circle cx="67.5" cy="127.5" r="1.5" fill="#111111"/><circle cx="72.5" cy="127.5" r="1.5" fill="#111111"/><circle cx="77.5" cy="127.5" r="1.5" fill="#111111"/><circle cx="82.5" cy="127.5" r="1.5" fill="#111111"/><circle cx="87.5" cy="127.5" r="1.5" fill="#111111"/><circle cx="92.5" cy="127.5" r="1.5" fill="#111111"/><circle cx="97.5" cy="127.5" r="1.5" fill="#111111"/><circle cx="102.5" cy="127.5" r="1.5" fill="#111111"/><circle cx="107.5" cy="127.5" r="1.5" fill="#111111"/><circle cx="57.5" cy="132.5" r="1.5" fill="#111111"/><circle cx="62.5" cy="132.5" r="1.5" fill="#111111"/><circle cx="67.5" cy="132.5" r="1.5" fill="#111111"/><circle cx="72.5" cy="132.5" r="1.5" fill="#111111"/><circle cx="77.5" cy="132.5" r="1.5" fill="#111111"/><circle cx="82.5" cy="132.5" r="1.5" fill="#111111"/><circle cx="87.5" cy="132.5" r="1.5" fill="#111111"/><circle cx="92.5" cy="132.5" r="1.5" fill="#111111"/><circle cx="97.5" cy="132.5" r="1.5" fill="#111111"/><circle cx="102.5" cy="132.5" r="1.5" fill="#111111"/><circle cx="67.5" cy="137.5" r="1.5" fill="#111111"/><circle cx="72.5" cy="137.5" r="1.5" fill="#111111"/><circle cx="77.5" cy="137.5" r="1.5" fill="#111111"/><circle cx="82.5" cy="137.5" r="1.5" fill="#111111"/><circle cx="87.5" cy="137.5" r="1.5" fill="#111111"/><circle cx="92.5" cy="137.5" r="1.5" fill="#111111"/><circle cx="77.5" cy="142.5" r="1.5" fill="#111111"/><circle cx="82.5" cy="142.5" r="1.5" fill="#111111"/></svg>